<svg width="176" height="24" viewBox="0 0 176 24" fill="none" xmlns="http://www.w3.org/2000/svg">
<path d="M18.104 7.768C18.104 9.06933 17.8053 10.264 17.208 11.352C16.6107 12.4187 15.6933 13.2827 14.456 13.944C13.2187 14.6053 11.6827 14.936 9.848 14.936H6.456V23H0.984V0.535999H9.848C11.64 0.535999 13.1547 0.845332 14.392 1.464C15.6293 2.08267 16.5573 2.936 17.176 4.024C17.7947 5.112 18.104 6.36 18.104 7.768ZM9.432 10.584C10.4773 10.584 11.256 10.3387 11.768 9.848C12.28 9.35733 12.536 8.664 12.536 7.768C12.536 6.872 12.28 6.17867 11.768 5.688C11.256 5.19733 10.4773 4.952 9.432 4.952H6.456V10.584H9.432ZM32.4088 23L27.7368 14.52H26.4248V23H20.9528V0.535999H30.1368C31.9074 0.535999 33.4114 0.845332 34.6488 1.464C35.9074 2.08267 36.8461 2.936 37.4648 4.024C38.0834 5.09067 38.3928 6.28533 38.3928 7.608C38.3928 9.10133 37.9661 10.4347 37.1128 11.608C36.2808 12.7813 35.0434 13.6133 33.4008 14.104L38.5848 23H32.4088ZM26.4248 10.648H29.8168C30.8194 10.648 31.5661 10.4027 32.0568 9.912C32.5688 9.42133 32.8248 8.728 32.8248 7.832C32.8248 6.97867 32.5688 6.30667 32.0568 5.816C31.5661 5.32533 30.8194 5.08 29.8168 5.08H26.4248V10.648ZM49.9558 23.224C48.3131 23.224 46.8411 22.9573 45.5398 22.424C44.2384 21.8907 43.1931 21.1013 42.4038 20.056C41.6358 19.0107 41.2304 17.752 41.1878 16.28H47.0118C47.0971 17.112 47.3851 17.752 47.8758 18.2C48.3664 18.6267 49.0064 18.84 49.7958 18.84C50.6064 18.84 51.2464 18.6587 51.7158 18.296C52.1851 17.912 52.4198 17.3893 52.4198 16.728C52.4198 16.1733 52.2278 15.7147 51.8438 15.352C51.4811 14.9893 51.0224 14.6907 50.4678 14.456C49.9344 14.2213 49.1664 13.9547 48.1638 13.656C46.7131 13.208 45.5291 12.76 44.6118 12.312C43.6944 11.864 42.9051 11.2027 42.2438 10.328C41.5824 9.45333 41.2518 8.312 41.2518 6.904C41.2518 4.81333 42.0091 3.18133 43.5238 2.008C45.0384 0.813333 47.0118 0.216 49.4438 0.216C51.9184 0.216 53.9131 0.813333 55.4278 2.008C56.9424 3.18133 57.7531 4.824 57.8598 6.936H51.9398C51.8971 6.21067 51.6304 5.64533 51.1398 5.24C50.6491 4.81333 50.0198 4.6 49.2517 4.6C48.5904 4.6 48.0571 4.78133 47.6518 5.144C47.2464 5.48533 47.0438 5.98667 47.0438 6.648C47.0438 7.37333 47.3851 7.93867 48.0677 8.344C48.7504 8.74933 49.8171 9.18667 51.2678 9.656C52.7184 10.1467 53.8918 10.616 54.7878 11.064C55.7051 11.512 56.4944 12.1627 57.1558 13.016C57.8171 13.8693 58.1478 14.968 58.1478 16.312C58.1478 17.592 57.8171 18.7547 57.1558 19.8C56.5158 20.8453 55.5771 21.6773 54.3398 22.296C53.1024 22.9147 51.6411 23.224 49.9558 23.224ZM74.5393 23L66.9873 13.08V23H61.5153V0.535999H66.9873V10.392L74.4753 0.535999H80.9073L72.2033 11.544L81.2273 23H74.5393ZM97.8118 19.032H89.4278L88.0838 23H82.3558L90.4838 0.535999H96.8198L104.948 23H99.1558L97.8118 19.032ZM96.4038 14.808L93.6198 6.584L90.8678 14.808H96.4038ZM112.894 18.776H120.062V23H107.422V0.535999H112.894V18.776ZM142.768 23H137.296L128.144 9.144V23H122.672V0.535999H128.144L137.296 14.456V0.535999H142.768V23ZM152.206 0.535999V23H146.734V0.535999H152.206ZM169.196 23L161.644 13.08V23H156.172V0.535999H161.644V10.392L169.132 0.535999H175.564L166.86 11.544L175.884 23H169.196Z" fill="#6DC1C5"/>
</svg>
