<svg width="411" height="102" viewBox="0 0 411 102" fill="none" xmlns="http://www.w3.org/2000/svg">
<path d="M27.424 0.535999V23H21.952V9.528L16.928 23H12.512L7.456 9.496V23H1.984V0.535999H8.448L14.752 16.088L20.992 0.535999H27.424ZM36.831 0.535999V23H31.359V0.535999H36.831ZM60.2525 0.535999V23H54.7805V13.752H46.2685V23H40.7965V0.535999H46.2685V9.336H54.7805V0.535999H60.2525ZM78.1868 19.032H69.8028L68.4588 23H62.7308L70.8588 0.535999H77.1948L85.3228 23H79.5308L78.1868 19.032ZM76.7788 14.808L73.9948 6.584L71.2428 14.808H76.7788ZM120.018 0.535999V23H114.546V9.528L109.522 23H105.106L100.05 9.496V23H94.5778V0.535999H101.042L107.346 16.088L113.586 0.535999H120.018ZM129.425 4.92V9.464H136.753V13.688H129.425V18.616H137.713V23H123.953V0.535999H137.713V4.92H129.425ZM149.681 0.535999C152.049 0.535999 154.119 1.00533 155.889 1.944C157.66 2.88267 159.025 4.20533 159.985 5.912C160.967 7.59733 161.457 9.54933 161.457 11.768C161.457 13.9653 160.967 15.9173 159.985 17.624C159.025 19.3307 157.649 20.6533 155.857 21.592C154.087 22.5307 152.028 23 149.681 23H141.265V0.535999H149.681ZM149.329 18.264C151.399 18.264 153.009 17.6987 154.161 16.568C155.313 15.4373 155.889 13.8373 155.889 11.768C155.889 9.69867 155.313 8.088 154.161 6.936C153.009 5.784 151.399 5.208 149.329 5.208H146.737V18.264H149.329ZM185.603 0.535999L177.635 23H170.787L162.819 0.535999H168.643L174.211 17.496L179.811 0.535999H185.603ZM193.362 4.92V9.464H200.69V13.688H193.362V18.616H201.65V23H187.89V0.535999H201.65V4.92H193.362ZM225.299 23H219.827L210.675 9.144V23H205.203V0.535999H210.675L219.827 14.456V0.535999H225.299V23ZM11.736 55.28H4.44L3.096 59H0.792L6.84 42.368H9.36L15.384 59H13.08L11.736 55.28ZM11.112 53.504L8.088 45.056L5.064 53.504H11.112ZM17.2039 52.376C17.2039 51.032 17.4759 49.856 18.0199 48.848C18.5639 47.824 19.3079 47.032 20.2519 46.472C21.2119 45.912 22.2839 45.632 23.4679 45.632C24.4919 45.632 25.4439 45.872 26.3239 46.352C27.2039 46.816 27.8759 47.432 28.3399 48.2V41.24H30.5479V59H28.3399V56.528C27.9079 57.312 27.2679 57.96 26.4199 58.472C25.5719 58.968 24.5799 59.216 23.4439 59.216C22.2759 59.216 21.2119 58.928 20.2519 58.352C19.3079 57.776 18.5639 56.968 18.0199 55.928C17.4759 54.888 17.2039 53.704 17.2039 52.376ZM28.3399 52.4C28.3399 51.408 28.1399 50.544 27.7399 49.808C27.3399 49.072 26.7959 48.512 26.1079 48.128C25.4359 47.728 24.6919 47.528 23.8759 47.528C23.0599 47.528 22.3159 47.72 21.6439 48.104C20.9719 48.488 20.4359 49.048 20.0359 49.784C19.6359 50.52 19.4359 51.384 19.4359 52.376C19.4359 53.384 19.6359 54.264 20.0359 55.016C20.4359 55.752 20.9719 56.32 21.6439 56.72C22.3159 57.104 23.0599 57.296 23.8759 57.296C24.6919 57.296 25.4359 57.104 26.1079 56.72C26.7959 56.32 27.3399 55.752 27.7399 55.016C28.1399 54.264 28.3399 53.392 28.3399 52.4ZM50.0546 45.608C51.0786 45.608 51.9906 45.824 52.7906 46.256C53.5906 46.672 54.2226 47.304 54.6866 48.152C55.1506 49 55.3826 50.032 55.3826 51.248V59H53.2226V51.56C53.2226 50.248 52.8946 49.248 52.2386 48.56C51.5986 47.856 50.7266 47.504 49.6226 47.504C48.4866 47.504 47.5826 47.872 46.9106 48.608C46.2386 49.328 45.9026 50.376 45.9026 51.752V59H43.7426V51.56C43.7426 50.248 43.4146 49.248 42.7586 48.56C42.1186 47.856 41.2466 47.504 40.1426 47.504C39.0066 47.504 38.1026 47.872 37.4306 48.608C36.7586 49.328 36.4226 50.376 36.4226 51.752V59H34.2386V45.848H36.4226V47.744C36.8546 47.056 37.4306 46.528 38.1506 46.16C38.8866 45.792 39.6946 45.608 40.5746 45.608C41.6786 45.608 42.6546 45.856 43.5026 46.352C44.3506 46.848 44.9826 47.576 45.3986 48.536C45.7666 47.608 46.3746 46.888 47.2226 46.376C48.0706 45.864 49.0146 45.608 50.0546 45.608ZM60.0932 43.712C59.6772 43.712 59.3252 43.568 59.0372 43.28C58.7492 42.992 58.6052 42.64 58.6052 42.224C58.6052 41.808 58.7492 41.456 59.0372 41.168C59.3252 40.88 59.6772 40.736 60.0932 40.736C60.4932 40.736 60.8292 40.88 61.1012 41.168C61.3892 41.456 61.5332 41.808 61.5332 42.224C61.5332 42.64 61.3892 42.992 61.1012 43.28C60.8292 43.568 60.4932 43.712 60.0932 43.712ZM61.1492 45.848V59H58.9652V45.848H61.1492ZM71.2794 45.608C72.8794 45.608 74.1754 46.096 75.1674 47.072C76.1594 48.032 76.6554 49.424 76.6554 51.248V59H74.4954V51.56C74.4954 50.248 74.1674 49.248 73.5114 48.56C72.8554 47.856 71.9594 47.504 70.8234 47.504C69.6714 47.504 68.7514 47.864 68.0634 48.584C67.3914 49.304 67.0554 50.352 67.0554 51.728V59H64.8714V45.848H67.0554V47.72C67.4874 47.048 68.0714 46.528 68.8074 46.16C69.5594 45.792 70.3834 45.608 71.2794 45.608ZM81.351 43.712C80.935 43.712 80.583 43.568 80.295 43.28C80.007 42.992 79.863 42.64 79.863 42.224C79.863 41.808 80.007 41.456 80.295 41.168C80.583 40.88 80.935 40.736 81.351 40.736C81.751 40.736 82.087 40.88 82.359 41.168C82.647 41.456 82.791 41.808 82.791 42.224C82.791 42.64 82.647 42.992 82.359 43.28C82.087 43.568 81.751 43.712 81.351 43.712ZM82.407 45.848V59H80.223V45.848H82.407ZM90.7853 59.216C89.7773 59.216 88.8733 59.048 88.0733 58.712C87.2733 58.36 86.6413 57.88 86.1773 57.272C85.7133 56.648 85.4573 55.936 85.4093 55.136H87.6653C87.7293 55.792 88.0333 56.328 88.5773 56.744C89.1373 57.16 89.8653 57.368 90.7613 57.368C91.5933 57.368 92.2493 57.184 92.7293 56.816C93.2093 56.448 93.4493 55.984 93.4493 55.424C93.4493 54.848 93.1933 54.424 92.6813 54.152C92.1693 53.864 91.3773 53.584 90.3053 53.312C89.3293 53.056 88.5293 52.8 87.9053 52.544C87.2973 52.272 86.7693 51.88 86.3213 51.368C85.8893 50.84 85.6733 50.152 85.6733 49.304C85.6733 48.632 85.8733 48.016 86.2733 47.456C86.6733 46.896 87.2413 46.456 87.9773 46.136C88.7133 45.8 89.5533 45.632 90.4973 45.632C91.9533 45.632 93.1293 46 94.0253 46.736C94.9213 47.472 95.4013 48.48 95.4653 49.76H93.2813C93.2333 49.072 92.9533 48.52 92.4413 48.104C91.9453 47.688 91.2733 47.48 90.4253 47.48C89.6413 47.48 89.0173 47.648 88.5533 47.984C88.0893 48.32 87.8573 48.76 87.8573 49.304C87.8573 49.736 87.9933 50.096 88.2653 50.384C88.5533 50.656 88.9053 50.88 89.3213 51.056C89.7533 51.216 90.3453 51.4 91.0973 51.608C92.0413 51.864 92.8093 52.12 93.4013 52.376C93.9933 52.616 94.4973 52.984 94.9133 53.48C95.3453 53.976 95.5693 54.624 95.5853 55.424C95.5853 56.144 95.3853 56.792 94.9853 57.368C94.5853 57.944 94.0173 58.4 93.2813 58.736C92.5613 59.056 91.7293 59.216 90.7853 59.216ZM101.332 47.648V55.4C101.332 56.04 101.468 56.496 101.74 56.768C102.012 57.024 102.484 57.152 103.156 57.152H104.764V59H102.796C101.58 59 100.668 58.72 100.06 58.16C99.4523 57.6 99.1483 56.68 99.1483 55.4V47.648H97.4443V45.848H99.1483V42.536H101.332V45.848H104.764V47.648H101.332ZM109.595 47.984C109.979 47.232 110.523 46.648 111.227 46.232C111.947 45.816 112.819 45.608 113.843 45.608V47.864H113.267C110.819 47.864 109.595 49.192 109.595 51.848V59H107.411V45.848H109.595V47.984ZM115.548 52.376C115.548 51.032 115.82 49.856 116.364 48.848C116.908 47.824 117.652 47.032 118.596 46.472C119.556 45.912 120.62 45.632 121.788 45.632C122.94 45.632 123.94 45.88 124.788 46.376C125.636 46.872 126.268 47.496 126.684 48.248V45.848H128.892V59H126.684V56.552C126.252 57.32 125.604 57.96 124.74 58.472C123.892 58.968 122.9 59.216 121.764 59.216C120.596 59.216 119.54 58.928 118.596 58.352C117.652 57.776 116.908 56.968 116.364 55.928C115.82 54.888 115.548 53.704 115.548 52.376ZM126.684 52.4C126.684 51.408 126.484 50.544 126.084 49.808C125.684 49.072 125.14 48.512 124.452 48.128C123.78 47.728 123.036 47.528 122.22 47.528C121.404 47.528 120.66 47.72 119.988 48.104C119.316 48.488 118.78 49.048 118.38 49.784C117.98 50.52 117.78 51.384 117.78 52.376C117.78 53.384 117.98 54.264 118.38 55.016C118.78 55.752 119.316 56.32 119.988 56.72C120.66 57.104 121.404 57.296 122.22 57.296C123.036 57.296 123.78 57.104 124.452 56.72C125.14 56.32 125.684 55.752 126.084 55.016C126.484 54.264 126.684 53.392 126.684 52.4ZM135.246 47.648V55.4C135.246 56.04 135.382 56.496 135.654 56.768C135.926 57.024 136.398 57.152 137.07 57.152H138.678V59H136.71C135.494 59 134.582 58.72 133.974 58.16C133.366 57.6 133.062 56.68 133.062 55.4V47.648H131.358V45.848H133.062V42.536H135.246V45.848H138.678V47.648H135.246ZM147.061 59.216C145.829 59.216 144.709 58.936 143.701 58.376C142.709 57.816 141.925 57.024 141.349 56C140.789 54.96 140.509 53.76 140.509 52.4C140.509 51.056 140.797 49.872 141.373 48.848C141.965 47.808 142.765 47.016 143.773 46.472C144.781 45.912 145.909 45.632 147.157 45.632C148.405 45.632 149.533 45.912 150.541 46.472C151.549 47.016 152.341 47.8 152.917 48.824C153.509 49.848 153.805 51.04 153.805 52.4C153.805 53.76 153.501 54.96 152.893 56C152.301 57.024 151.493 57.816 150.469 58.376C149.445 58.936 148.309 59.216 147.061 59.216ZM147.061 57.296C147.845 57.296 148.581 57.112 149.269 56.744C149.957 56.376 150.509 55.824 150.925 55.088C151.357 54.352 151.573 53.456 151.573 52.4C151.573 51.344 151.365 50.448 150.949 49.712C150.533 48.976 149.989 48.432 149.317 48.08C148.645 47.712 147.917 47.528 147.133 47.528C146.333 47.528 145.597 47.712 144.925 48.08C144.269 48.432 143.741 48.976 143.341 49.712C142.941 50.448 142.741 51.344 142.741 52.4C142.741 53.472 142.933 54.376 143.317 55.112C143.717 55.848 144.245 56.4 144.901 56.768C145.557 57.12 146.277 57.296 147.061 57.296ZM158.86 47.984C159.244 47.232 159.788 46.648 160.492 46.232C161.212 45.816 162.084 45.608 163.108 45.608V47.864H162.532C160.084 47.864 158.86 49.192 158.86 51.848V59H156.676V45.848H158.86V47.984ZM181.484 42.272V44.048H174.212V49.688H180.116V51.464H174.212V59H172.028V42.272H181.484ZM192.497 50.384C193.105 50.48 193.657 50.728 194.153 51.128C194.665 51.528 195.065 52.024 195.353 52.616C195.657 53.208 195.809 53.84 195.809 54.512C195.809 55.36 195.593 56.128 195.161 56.816C194.729 57.488 194.097 58.024 193.265 58.424C192.449 58.808 191.481 59 190.361 59H184.121V42.272H190.121C191.257 42.272 192.225 42.464 193.025 42.848C193.825 43.216 194.425 43.72 194.825 44.36C195.225 45 195.425 45.72 195.425 46.52C195.425 47.512 195.153 48.336 194.609 48.992C194.081 49.632 193.377 50.096 192.497 50.384ZM186.305 49.496H189.977C191.001 49.496 191.793 49.256 192.353 48.776C192.913 48.296 193.193 47.632 193.193 46.784C193.193 45.936 192.913 45.272 192.353 44.792C191.793 44.312 190.985 44.072 189.929 44.072H186.305V49.496ZM190.169 57.2C191.257 57.2 192.105 56.944 192.713 56.432C193.321 55.92 193.625 55.208 193.625 54.296C193.625 53.368 193.305 52.64 192.665 52.112C192.025 51.568 191.169 51.296 190.097 51.296H186.305V57.2H190.169ZM209.895 59.216C208.887 59.216 207.983 59.048 207.183 58.712C206.383 58.36 205.751 57.88 205.287 57.272C204.823 56.648 204.567 55.936 204.519 55.136H206.775C206.839 55.792 207.143 56.328 207.687 56.744C208.247 57.16 208.975 57.368 209.871 57.368C210.703 57.368 211.359 57.184 211.839 56.816C212.319 56.448 212.559 55.984 212.559 55.424C212.559 54.848 212.303 54.424 211.791 54.152C211.279 53.864 210.487 53.584 209.415 53.312C208.439 53.056 207.639 52.8 207.015 52.544C206.407 52.272 205.879 51.88 205.431 51.368C204.999 50.84 204.783 50.152 204.783 49.304C204.783 48.632 204.983 48.016 205.383 47.456C205.783 46.896 206.351 46.456 207.087 46.136C207.823 45.8 208.663 45.632 209.607 45.632C211.063 45.632 212.239 46 213.135 46.736C214.031 47.472 214.511 48.48 214.575 49.76H212.391C212.343 49.072 212.063 48.52 211.551 48.104C211.055 47.688 210.383 47.48 209.535 47.48C208.751 47.48 208.127 47.648 207.663 47.984C207.199 48.32 206.967 48.76 206.967 49.304C206.967 49.736 207.103 50.096 207.375 50.384C207.663 50.656 208.015 50.88 208.431 51.056C208.863 51.216 209.455 51.4 210.207 51.608C211.151 51.864 211.919 52.12 212.511 52.376C213.103 52.616 213.607 52.984 214.023 53.48C214.455 53.976 214.679 54.624 214.695 55.424C214.695 56.144 214.495 56.792 214.095 57.368C213.695 57.944 213.127 58.4 212.391 58.736C211.671 59.056 210.839 59.216 209.895 59.216ZM225.122 59L219.962 53.192V59H217.778V41.24H219.962V51.68L225.026 45.848H228.074L221.882 52.4L228.098 59H225.122ZM241.793 45.848V59H239.609V57.056C239.193 57.728 238.609 58.256 237.857 58.64C237.121 59.008 236.305 59.192 235.409 59.192C234.385 59.192 233.465 58.984 232.649 58.568C231.833 58.136 231.185 57.496 230.705 56.648C230.241 55.8 230.009 54.768 230.009 53.552V45.848H232.169V53.264C232.169 54.56 232.497 55.56 233.153 56.264C233.809 56.952 234.705 57.296 235.841 57.296C237.009 57.296 237.929 56.936 238.601 56.216C239.273 55.496 239.609 54.448 239.609 53.072V45.848H241.793ZM247.665 48.272C248.097 47.52 248.737 46.896 249.585 46.4C250.449 45.888 251.449 45.632 252.585 45.632C253.753 45.632 254.809 45.912 255.753 46.472C256.713 47.032 257.465 47.824 258.009 48.848C258.553 49.856 258.825 51.032 258.825 52.376C258.825 53.704 258.553 54.888 258.009 55.928C257.465 56.968 256.713 57.776 255.753 58.352C254.809 58.928 253.753 59.216 252.585 59.216C251.465 59.216 250.473 58.968 249.609 58.472C248.761 57.96 248.113 57.328 247.665 56.576V65.24H245.481V45.848H247.665V48.272ZM256.593 52.376C256.593 51.384 256.393 50.52 255.993 49.784C255.593 49.048 255.049 48.488 254.361 48.104C253.689 47.72 252.945 47.528 252.129 47.528C251.329 47.528 250.585 47.728 249.897 48.128C249.225 48.512 248.681 49.08 248.265 49.832C247.865 50.568 247.665 51.424 247.665 52.4C247.665 53.392 247.865 54.264 248.265 55.016C248.681 55.752 249.225 56.32 249.897 56.72C250.585 57.104 251.329 57.296 252.129 57.296C252.945 57.296 253.689 57.104 254.361 56.72C255.049 56.32 255.593 55.752 255.993 55.016C256.393 54.264 256.593 53.384 256.593 52.376ZM262.828 43.712C262.412 43.712 262.06 43.568 261.772 43.28C261.484 42.992 261.34 42.64 261.34 42.224C261.34 41.808 261.484 41.456 261.772 41.168C262.06 40.88 262.412 40.736 262.828 40.736C263.228 40.736 263.564 40.88 263.836 41.168C264.124 41.456 264.268 41.808 264.268 42.224C264.268 42.64 264.124 42.992 263.836 43.28C263.564 43.568 263.228 43.712 262.828 43.712ZM263.884 45.848V59H261.7V45.848H263.884ZM274.014 45.608C275.614 45.608 276.91 46.096 277.902 47.072C278.894 48.032 279.39 49.424 279.39 51.248V59H277.23V51.56C277.23 50.248 276.902 49.248 276.246 48.56C275.59 47.856 274.694 47.504 273.558 47.504C272.406 47.504 271.486 47.864 270.798 48.584C270.126 49.304 269.79 50.352 269.79 51.728V59H267.606V45.848H269.79V47.72C270.222 47.048 270.806 46.528 271.542 46.16C272.294 45.792 273.118 45.608 274.014 45.608ZM294.957 51.92C294.957 52.336 294.933 52.776 294.885 53.24H284.373C284.453 54.536 284.893 55.552 285.693 56.288C286.509 57.008 287.493 57.368 288.645 57.368C289.589 57.368 290.373 57.152 290.997 56.72C291.637 56.272 292.085 55.68 292.341 54.944H294.693C294.341 56.208 293.637 57.24 292.581 58.04C291.525 58.824 290.213 59.216 288.645 59.216C287.397 59.216 286.277 58.936 285.285 58.376C284.309 57.816 283.541 57.024 282.981 56C282.421 54.96 282.141 53.76 282.141 52.4C282.141 51.04 282.413 49.848 282.957 48.824C283.501 47.8 284.261 47.016 285.237 46.472C286.229 45.912 287.365 45.632 288.645 45.632C289.893 45.632 290.997 45.904 291.957 46.448C292.917 46.992 293.653 47.744 294.165 48.704C294.693 49.648 294.957 50.72 294.957 51.92ZM292.701 51.464C292.701 50.632 292.517 49.92 292.149 49.328C291.781 48.72 291.277 48.264 290.637 47.96C290.013 47.64 289.317 47.48 288.549 47.48C287.445 47.48 286.501 47.832 285.717 48.536C284.949 49.24 284.509 50.216 284.397 51.464H292.701ZM309.543 59.168C308.439 59.168 307.447 58.976 306.567 58.592C305.703 58.192 305.023 57.648 304.527 56.96C304.031 56.256 303.775 55.448 303.759 54.536H306.087C306.167 55.32 306.487 55.984 307.047 56.528C307.623 57.056 308.455 57.32 309.543 57.32C310.583 57.32 311.399 57.064 311.991 56.552C312.599 56.024 312.903 55.352 312.903 54.536C312.903 53.896 312.727 53.376 312.375 52.976C312.023 52.576 311.583 52.272 311.055 52.064C310.527 51.856 309.815 51.632 308.919 51.392C307.815 51.104 306.927 50.816 306.255 50.528C305.599 50.24 305.031 49.792 304.551 49.184C304.087 48.56 303.855 47.728 303.855 46.688C303.855 45.776 304.087 44.968 304.551 44.264C305.015 43.56 305.663 43.016 306.495 42.632C307.343 42.248 308.311 42.056 309.399 42.056C310.967 42.056 312.247 42.448 313.239 43.232C314.247 44.016 314.815 45.056 314.943 46.352H312.543C312.463 45.712 312.127 45.152 311.535 44.672C310.943 44.176 310.159 43.928 309.183 43.928C308.271 43.928 307.527 44.168 306.951 44.648C306.375 45.112 306.087 45.768 306.087 46.616C306.087 47.224 306.255 47.72 306.591 48.104C306.943 48.488 307.367 48.784 307.863 48.992C308.375 49.184 309.087 49.408 309.999 49.664C311.103 49.968 311.991 50.272 312.663 50.576C313.335 50.864 313.911 51.32 314.391 51.944C314.871 52.552 315.111 53.384 315.111 54.44C315.111 55.256 314.895 56.024 314.463 56.744C314.031 57.464 313.391 58.048 312.543 58.496C311.695 58.944 310.695 59.168 309.543 59.168ZM320.509 41.24V59H318.325V41.24H320.509ZM329.967 59.216C328.735 59.216 327.615 58.936 326.607 58.376C325.615 57.816 324.831 57.024 324.255 56C323.695 54.96 323.415 53.76 323.415 52.4C323.415 51.056 323.703 49.872 324.279 48.848C324.871 47.808 325.671 47.016 326.679 46.472C327.687 45.912 328.815 45.632 330.063 45.632C331.311 45.632 332.439 45.912 333.447 46.472C334.455 47.016 335.247 47.8 335.823 48.824C336.415 49.848 336.711 51.04 336.711 52.4C336.711 53.76 336.407 54.96 335.799 56C335.207 57.024 334.399 57.816 333.375 58.376C332.351 58.936 331.215 59.216 329.967 59.216ZM329.967 57.296C330.751 57.296 331.487 57.112 332.175 56.744C332.863 56.376 333.415 55.824 333.831 55.088C334.263 54.352 334.479 53.456 334.479 52.4C334.479 51.344 334.271 50.448 333.855 49.712C333.439 48.976 332.895 48.432 332.223 48.08C331.551 47.712 330.823 47.528 330.039 47.528C329.239 47.528 328.503 47.712 327.831 48.08C327.175 48.432 326.647 48.976 326.247 49.712C325.847 50.448 325.647 51.344 325.647 52.4C325.647 53.472 325.839 54.376 326.223 55.112C326.623 55.848 327.151 56.4 327.807 56.768C328.463 57.12 329.183 57.296 329.967 57.296ZM344.478 56.984L348.558 45.848H350.886L345.726 59H343.182L338.022 45.848H340.374L344.478 56.984ZM365.036 51.92C365.036 52.336 365.012 52.776 364.964 53.24H354.452C354.532 54.536 354.972 55.552 355.772 56.288C356.588 57.008 357.572 57.368 358.724 57.368C359.668 57.368 360.452 57.152 361.076 56.72C361.716 56.272 362.164 55.68 362.42 54.944H364.772C364.42 56.208 363.716 57.24 362.66 58.04C361.604 58.824 360.292 59.216 358.724 59.216C357.476 59.216 356.356 58.936 355.364 58.376C354.388 57.816 353.62 57.024 353.06 56C352.5 54.96 352.22 53.76 352.22 52.4C352.22 51.04 352.492 49.848 353.036 48.824C353.58 47.8 354.34 47.016 355.316 46.472C356.308 45.912 357.444 45.632 358.724 45.632C359.972 45.632 361.076 45.904 362.036 46.448C362.996 46.992 363.732 47.744 364.244 48.704C364.772 49.648 365.036 50.72 365.036 51.92ZM362.78 51.464C362.78 50.632 362.596 49.92 362.228 49.328C361.86 48.72 361.356 48.264 360.716 47.96C360.092 47.64 359.396 47.48 358.628 47.48C357.524 47.48 356.58 47.832 355.796 48.536C355.028 49.24 354.588 50.216 354.476 51.464H362.78ZM374.326 45.608C375.926 45.608 377.222 46.096 378.214 47.072C379.206 48.032 379.702 49.424 379.702 51.248V59H377.542V51.56C377.542 50.248 377.214 49.248 376.558 48.56C375.902 47.856 375.006 47.504 373.87 47.504C372.718 47.504 371.798 47.864 371.11 48.584C370.438 49.304 370.102 50.352 370.102 51.728V59H367.918V45.848H370.102V47.72C370.534 47.048 371.118 46.528 371.854 46.16C372.606 45.792 373.43 45.608 374.326 45.608ZM387.926 59.216C386.918 59.216 386.014 59.048 385.214 58.712C384.414 58.36 383.782 57.88 383.318 57.272C382.854 56.648 382.598 55.936 382.55 55.136H384.806C384.87 55.792 385.174 56.328 385.718 56.744C386.278 57.16 387.006 57.368 387.902 57.368C388.734 57.368 389.39 57.184 389.87 56.816C390.35 56.448 390.59 55.984 390.59 55.424C390.59 54.848 390.334 54.424 389.822 54.152C389.31 53.864 388.518 53.584 387.446 53.312C386.47 53.056 385.67 52.8 385.046 52.544C384.438 52.272 383.91 51.88 383.462 51.368C383.03 50.84 382.814 50.152 382.814 49.304C382.814 48.632 383.014 48.016 383.414 47.456C383.814 46.896 384.382 46.456 385.118 46.136C385.854 45.8 386.694 45.632 387.638 45.632C389.094 45.632 390.27 46 391.166 46.736C392.062 47.472 392.542 48.48 392.606 49.76H390.422C390.374 49.072 390.094 48.52 389.582 48.104C389.086 47.688 388.414 47.48 387.566 47.48C386.782 47.48 386.158 47.648 385.694 47.984C385.23 48.32 384.998 48.76 384.998 49.304C384.998 49.736 385.134 50.096 385.406 50.384C385.694 50.656 386.046 50.88 386.462 51.056C386.894 51.216 387.486 51.4 388.238 51.608C389.182 51.864 389.95 52.12 390.542 52.376C391.134 52.616 391.638 52.984 392.054 53.48C392.486 53.976 392.71 54.624 392.726 55.424C392.726 56.144 392.526 56.792 392.126 57.368C391.726 57.944 391.158 58.4 390.422 58.736C389.702 59.056 388.87 59.216 387.926 59.216ZM403.153 59L397.993 53.192V59H395.809V41.24H397.993V51.68L403.057 45.848H406.105L399.913 52.4L406.129 59H403.153ZM409.289 43.712C408.873 43.712 408.521 43.568 408.233 43.28C407.945 42.992 407.801 42.64 407.801 42.224C407.801 41.808 407.945 41.456 408.233 41.168C408.521 40.88 408.873 40.736 409.289 40.736C409.689 40.736 410.025 40.88 410.297 41.168C410.585 41.456 410.729 41.808 410.729 42.224C410.729 42.64 410.585 42.992 410.297 43.28C410.025 43.568 409.689 43.712 409.289 43.712ZM410.345 45.848V59H408.161V45.848H410.345ZM1.032 88.376C1.032 87.032 1.304 85.856 1.848 84.848C2.392 83.824 3.136 83.032 4.08 82.472C5.04 81.912 6.112 81.632 7.296 81.632C8.32 81.632 9.272 81.872 10.152 82.352C11.032 82.816 11.704 83.432 12.168 84.2V77.24H14.376V95H12.168V92.528C11.736 93.312 11.096 93.96 10.248 94.472C9.4 94.968 8.408 95.216 7.272 95.216C6.104 95.216 5.04 94.928 4.08 94.352C3.136 93.776 2.392 92.968 1.848 91.928C1.304 90.888 1.032 89.704 1.032 88.376ZM12.168 88.4C12.168 87.408 11.968 86.544 11.568 85.808C11.168 85.072 10.624 84.512 9.936 84.128C9.264 83.728 8.52 83.528 7.704 83.528C6.888 83.528 6.144 83.72 5.472 84.104C4.8 84.488 4.264 85.048 3.864 85.784C3.464 86.52 3.264 87.384 3.264 88.376C3.264 89.384 3.464 90.264 3.864 91.016C4.264 91.752 4.8 92.32 5.472 92.72C6.144 93.104 6.888 93.296 7.704 93.296C8.52 93.296 9.264 93.104 9.936 92.72C10.624 92.32 11.168 91.752 11.568 91.016C11.968 90.264 12.168 89.392 12.168 88.4ZM30.0668 87.92C30.0668 88.336 30.0428 88.776 29.9948 89.24H19.4828C19.5628 90.536 20.0028 91.552 20.8028 92.288C21.6188 93.008 22.6028 93.368 23.7548 93.368C24.6988 93.368 25.4828 93.152 26.1068 92.72C26.7468 92.272 27.1948 91.68 27.4508 90.944H29.8028C29.4508 92.208 28.7468 93.24 27.6908 94.04C26.6348 94.824 25.3228 95.216 23.7548 95.216C22.5068 95.216 21.3868 94.936 20.3948 94.376C19.4188 93.816 18.6508 93.024 18.0908 92C17.5308 90.96 17.2508 89.76 17.2508 88.4C17.2508 87.04 17.5228 85.848 18.0668 84.824C18.6108 83.8 19.3708 83.016 20.3468 82.472C21.3388 81.912 22.4748 81.632 23.7548 81.632C25.0028 81.632 26.1068 81.904 27.0668 82.448C28.0268 82.992 28.7628 83.744 29.2748 84.704C29.8028 85.648 30.0668 86.72 30.0668 87.92ZM27.8108 87.464C27.8108 86.632 27.6268 85.92 27.2588 85.328C26.8908 84.72 26.3868 84.264 25.7468 83.96C25.1228 83.64 24.4268 83.48 23.6588 83.48C22.5548 83.48 21.6108 83.832 20.8268 84.536C20.0588 85.24 19.6188 86.216 19.5068 87.464H27.8108ZM37.8456 92.984L41.9256 81.848H44.2536L39.0936 95H36.5496L31.3896 81.848H33.7416L37.8456 92.984ZM58.4027 87.92C58.4027 88.336 58.3787 88.776 58.3307 89.24H47.8187C47.8987 90.536 48.3387 91.552 49.1387 92.288C49.9547 93.008 50.9387 93.368 52.0907 93.368C53.0347 93.368 53.8187 93.152 54.4427 92.72C55.0827 92.272 55.5307 91.68 55.7867 90.944H58.1387C57.7867 92.208 57.0827 93.24 56.0267 94.04C54.9707 94.824 53.6587 95.216 52.0907 95.216C50.8427 95.216 49.7227 94.936 48.7307 94.376C47.7547 93.816 46.9867 93.024 46.4267 92C45.8667 90.96 45.5867 89.76 45.5867 88.4C45.5867 87.04 45.8587 85.848 46.4027 84.824C46.9467 83.8 47.7067 83.016 48.6827 82.472C49.6747 81.912 50.8107 81.632 52.0907 81.632C53.3387 81.632 54.4427 81.904 55.4027 82.448C56.3627 82.992 57.0987 83.744 57.6107 84.704C58.1387 85.648 58.4027 86.72 58.4027 87.92ZM56.1467 87.464C56.1467 86.632 55.9627 85.92 55.5947 85.328C55.2267 84.72 54.7227 84.264 54.0827 83.96C53.4587 83.64 52.7627 83.48 51.9947 83.48C50.8907 83.48 49.9467 83.832 49.1627 84.536C48.3947 85.24 47.9547 86.216 47.8427 87.464H56.1467ZM63.4695 77.24V95H61.2855V77.24H63.4695ZM72.9278 95.216C71.6958 95.216 70.5758 94.936 69.5678 94.376C68.5758 93.816 67.7918 93.024 67.2158 92C66.6558 90.96 66.3758 89.76 66.3758 88.4C66.3758 87.056 66.6638 85.872 67.2398 84.848C67.8318 83.808 68.6318 83.016 69.6398 82.472C70.6478 81.912 71.7758 81.632 73.0238 81.632C74.2718 81.632 75.3998 81.912 76.4078 82.472C77.4158 83.016 78.2078 83.8 78.7838 84.824C79.3758 85.848 79.6718 87.04 79.6718 88.4C79.6718 89.76 79.3678 90.96 78.7598 92C78.1678 93.024 77.3598 93.816 76.3358 94.376C75.3118 94.936 74.1758 95.216 72.9278 95.216ZM72.9278 93.296C73.7118 93.296 74.4478 93.112 75.1358 92.744C75.8238 92.376 76.3758 91.824 76.7918 91.088C77.2238 90.352 77.4398 89.456 77.4398 88.4C77.4398 87.344 77.2318 86.448 76.8158 85.712C76.3998 84.976 75.8558 84.432 75.1838 84.08C74.5118 83.712 73.7838 83.528 72.9998 83.528C72.1998 83.528 71.4638 83.712 70.7918 84.08C70.1358 84.432 69.6078 84.976 69.2078 85.712C68.8078 86.448 68.6078 87.344 68.6078 88.4C68.6078 89.472 68.7998 90.376 69.1838 91.112C69.5838 91.848 70.1118 92.4 70.7678 92.768C71.4238 93.12 72.1438 93.296 72.9278 93.296ZM84.7273 84.272C85.1593 83.52 85.7993 82.896 86.6473 82.4C87.5113 81.888 88.5113 81.632 89.6473 81.632C90.8153 81.632 91.8713 81.912 92.8153 82.472C93.7753 83.032 94.5273 83.824 95.0713 84.848C95.6153 85.856 95.8873 87.032 95.8873 88.376C95.8873 89.704 95.6153 90.888 95.0713 91.928C94.5273 92.968 93.7753 93.776 92.8153 94.352C91.8713 94.928 90.8153 95.216 89.6473 95.216C88.5273 95.216 87.5353 94.968 86.6713 94.472C85.8233 93.96 85.1753 93.328 84.7273 92.576V101.24H82.5433V81.848H84.7273V84.272ZM93.6553 88.376C93.6553 87.384 93.4553 86.52 93.0553 85.784C92.6553 85.048 92.1113 84.488 91.4233 84.104C90.7513 83.72 90.0073 83.528 89.1913 83.528C88.3913 83.528 87.6473 83.728 86.9593 84.128C86.2873 84.512 85.7433 85.08 85.3273 85.832C84.9273 86.568 84.7273 87.424 84.7273 88.4C84.7273 89.392 84.9273 90.264 85.3273 91.016C85.7433 91.752 86.2873 92.32 86.9593 92.72C87.6473 93.104 88.3913 93.296 89.1913 93.296C90.0073 93.296 90.7513 93.104 91.4233 92.72C92.1113 92.32 92.6553 91.752 93.0553 91.016C93.4553 90.264 93.6553 89.384 93.6553 88.376ZM110.762 87.92C110.762 88.336 110.738 88.776 110.69 89.24H100.178C100.258 90.536 100.698 91.552 101.498 92.288C102.314 93.008 103.298 93.368 104.45 93.368C105.394 93.368 106.178 93.152 106.802 92.72C107.442 92.272 107.89 91.68 108.146 90.944H110.498C110.146 92.208 109.442 93.24 108.386 94.04C107.33 94.824 106.018 95.216 104.45 95.216C103.202 95.216 102.082 94.936 101.09 94.376C100.114 93.816 99.3461 93.024 98.7861 92C98.2261 90.96 97.9461 89.76 97.9461 88.4C97.9461 87.04 98.2181 85.848 98.7621 84.824C99.3061 83.8 100.066 83.016 101.042 82.472C102.034 81.912 103.17 81.632 104.45 81.632C105.698 81.632 106.802 81.904 107.762 82.448C108.722 82.992 109.458 83.744 109.97 84.704C110.498 85.648 110.762 86.72 110.762 87.92ZM108.506 87.464C108.506 86.632 108.322 85.92 107.954 85.328C107.586 84.72 107.082 84.264 106.442 83.96C105.818 83.64 105.122 83.48 104.354 83.48C103.25 83.48 102.306 83.832 101.522 84.536C100.754 85.24 100.314 86.216 100.202 87.464H108.506ZM115.829 83.984C116.213 83.232 116.757 82.648 117.461 82.232C118.181 81.816 119.053 81.608 120.077 81.608V83.864H119.501C117.053 83.864 115.829 85.192 115.829 87.848V95H113.645V81.848H115.829V83.984ZM123.774 79.712C123.358 79.712 123.006 79.568 122.718 79.28C122.446 78.992 122.31 78.64 122.31 78.224C122.31 77.808 122.446 77.456 122.718 77.168C123.006 76.88 123.358 76.736 123.774 76.736C124.19 76.736 124.534 76.88 124.806 77.168C125.094 77.456 125.238 77.808 125.238 78.224C125.238 78.64 125.094 78.992 124.806 79.28C124.534 79.568 124.19 79.712 123.774 79.712ZM124.854 97.856C124.854 99.024 124.558 99.88 123.966 100.424C123.374 100.968 122.51 101.24 121.374 101.24H120.102V99.392H121.014C121.622 99.392 122.046 99.272 122.286 99.032C122.542 98.792 122.67 98.384 122.67 97.808V81.848H124.854V97.856ZM129.679 79.712C129.263 79.712 128.911 79.568 128.623 79.28C128.335 78.992 128.191 78.64 128.191 78.224C128.191 77.808 128.335 77.456 128.623 77.168C128.911 76.88 129.263 76.736 129.679 76.736C130.079 76.736 130.415 76.88 130.687 77.168C130.975 77.456 131.119 77.808 131.119 78.224C131.119 78.64 130.975 78.992 130.687 79.28C130.415 79.568 130.079 79.712 129.679 79.712ZM130.735 81.848V95H128.551V81.848H130.735ZM136.713 91.976L134.025 98.432H132.561L134.313 91.976H136.713ZM151.196 86.624C151.196 84.992 151.564 83.528 152.3 82.232C153.036 80.92 154.036 79.896 155.3 79.16C156.58 78.424 157.996 78.056 159.548 78.056C161.372 78.056 162.964 78.496 164.324 79.376C165.684 80.256 166.676 81.504 167.3 83.12H164.684C164.22 82.112 163.548 81.336 162.668 80.792C161.804 80.248 160.764 79.976 159.548 79.976C158.38 79.976 157.332 80.248 156.404 80.792C155.476 81.336 154.748 82.112 154.22 83.12C153.692 84.112 153.428 85.28 153.428 86.624C153.428 87.952 153.692 89.12 154.22 90.128C154.748 91.12 155.476 91.888 156.404 92.432C157.332 92.976 158.38 93.248 159.548 93.248C160.764 93.248 161.804 92.984 162.668 92.456C163.548 91.912 164.22 91.136 164.684 90.128H167.3C166.676 91.728 165.684 92.968 164.324 93.848C162.964 94.712 161.372 95.144 159.548 95.144C157.996 95.144 156.58 94.784 155.3 94.064C154.036 93.328 153.036 92.312 152.3 91.016C151.564 89.72 151.196 88.256 151.196 86.624ZM180.847 78.272V80.048H176.287V95H174.103V80.048H169.519V78.272H180.847ZM191.12 95.168C189.568 95.168 188.152 94.808 186.872 94.088C185.592 93.352 184.576 92.336 183.824 91.04C183.088 89.728 182.72 88.256 182.72 86.624C182.72 84.992 183.088 83.528 183.824 82.232C184.576 80.92 185.592 79.904 186.872 79.184C188.152 78.448 189.568 78.08 191.12 78.08C192.688 78.08 194.112 78.448 195.392 79.184C196.672 79.904 197.68 80.912 198.416 82.208C199.152 83.504 199.52 84.976 199.52 86.624C199.52 88.272 199.152 89.744 198.416 91.04C197.68 92.336 196.672 93.352 195.392 94.088C194.112 94.808 192.688 95.168 191.12 95.168ZM191.12 93.272C192.288 93.272 193.336 93 194.264 92.456C195.208 91.912 195.944 91.136 196.472 90.128C197.016 89.12 197.288 87.952 197.288 86.624C197.288 85.28 197.016 84.112 196.472 83.12C195.944 82.112 195.216 81.336 194.288 80.792C193.36 80.248 192.304 79.976 191.12 79.976C189.936 79.976 188.88 80.248 187.952 80.792C187.024 81.336 186.288 82.112 185.744 83.12C185.216 84.112 184.952 85.28 184.952 86.624C184.952 87.952 185.216 89.12 185.744 90.128C186.288 91.136 187.024 91.912 187.952 92.456C188.896 93 189.952 93.272 191.12 93.272ZM210.985 84.272C211.417 83.52 212.057 82.896 212.905 82.4C213.769 81.888 214.769 81.632 215.905 81.632C217.073 81.632 218.129 81.912 219.073 82.472C220.033 83.032 220.785 83.824 221.329 84.848C221.873 85.856 222.145 87.032 222.145 88.376C222.145 89.704 221.873 90.888 221.329 91.928C220.785 92.968 220.033 93.776 219.073 94.352C218.129 94.928 217.073 95.216 215.905 95.216C214.785 95.216 213.793 94.968 212.929 94.472C212.081 93.96 211.433 93.328 210.985 92.576V101.24H208.801V81.848H210.985V84.272ZM219.913 88.376C219.913 87.384 219.713 86.52 219.313 85.784C218.913 85.048 218.369 84.488 217.681 84.104C217.009 83.72 216.265 83.528 215.449 83.528C214.649 83.528 213.905 83.728 213.217 84.128C212.545 84.512 212.001 85.08 211.585 85.832C211.185 86.568 210.985 87.424 210.985 88.4C210.985 89.392 211.185 90.264 211.585 91.016C212.001 91.752 212.545 92.32 213.217 92.72C213.905 93.104 214.649 93.296 215.449 93.296C216.265 93.296 217.009 93.104 217.681 92.72C218.369 92.32 218.913 91.752 219.313 91.016C219.713 90.264 219.913 89.384 219.913 88.376ZM227.204 83.984C227.588 83.232 228.132 82.648 228.836 82.232C229.556 81.816 230.428 81.608 231.452 81.608V83.864H230.876C228.428 83.864 227.204 85.192 227.204 87.848V95H225.02V81.848H227.204V83.984ZM235.101 79.712C234.685 79.712 234.333 79.568 234.045 79.28C233.757 78.992 233.613 78.64 233.613 78.224C233.613 77.808 233.757 77.456 234.045 77.168C234.333 76.88 234.685 76.736 235.101 76.736C235.501 76.736 235.837 76.88 236.109 77.168C236.397 77.456 236.541 77.808 236.541 78.224C236.541 78.64 236.397 78.992 236.109 79.28C235.837 79.568 235.501 79.712 235.101 79.712ZM236.157 81.848V95H233.973V81.848H236.157ZM245.462 88.376C245.462 87.032 245.734 85.856 246.278 84.848C246.822 83.824 247.566 83.032 248.51 82.472C249.47 81.912 250.542 81.632 251.726 81.632C252.862 81.632 253.854 81.888 254.702 82.4C255.566 82.896 256.198 83.512 256.598 84.248V81.848H258.806V101.24H256.598V92.576C256.182 93.312 255.542 93.936 254.678 94.448C253.814 94.96 252.806 95.216 251.654 95.216C250.502 95.216 249.454 94.928 248.51 94.352C247.566 93.776 246.822 92.968 246.278 91.928C245.734 90.888 245.462 89.704 245.462 88.376ZM256.598 88.4C256.598 87.408 256.398 86.544 255.998 85.808C255.598 85.072 255.054 84.512 254.366 84.128C253.694 83.728 252.95 83.528 252.134 83.528C251.318 83.528 250.574 83.72 249.902 84.104C249.23 84.488 248.694 85.048 248.294 85.784C247.894 86.52 247.694 87.384 247.694 88.376C247.694 89.384 247.894 90.264 248.294 91.016C248.694 91.752 249.23 92.32 249.902 92.72C250.574 93.104 251.318 93.296 252.134 93.296C252.95 93.296 253.694 93.104 254.366 92.72C255.054 92.32 255.598 91.752 255.998 91.016C256.398 90.264 256.598 89.392 256.598 88.4ZM274.16 81.848V95H271.976V93.056C271.56 93.728 270.976 94.256 270.224 94.64C269.488 95.008 268.672 95.192 267.776 95.192C266.752 95.192 265.832 94.984 265.016 94.568C264.2 94.136 263.552 93.496 263.072 92.648C262.608 91.8 262.376 90.768 262.376 89.552V81.848H264.536V89.264C264.536 90.56 264.864 91.56 265.52 92.264C266.176 92.952 267.072 93.296 268.208 93.296C269.376 93.296 270.296 92.936 270.968 92.216C271.64 91.496 271.976 90.448 271.976 89.072V81.848H274.16ZM277.032 88.376C277.032 87.032 277.304 85.856 277.848 84.848C278.392 83.824 279.136 83.032 280.08 82.472C281.04 81.912 282.104 81.632 283.272 81.632C284.424 81.632 285.424 81.88 286.272 82.376C287.12 82.872 287.752 83.496 288.168 84.248V81.848H290.376V95H288.168V92.552C287.736 93.32 287.088 93.96 286.224 94.472C285.376 94.968 284.384 95.216 283.248 95.216C282.08 95.216 281.024 94.928 280.08 94.352C279.136 93.776 278.392 92.968 277.848 91.928C277.304 90.888 277.032 89.704 277.032 88.376ZM288.168 88.4C288.168 87.408 287.968 86.544 287.568 85.808C287.168 85.072 286.624 84.512 285.936 84.128C285.264 83.728 284.52 83.528 283.704 83.528C282.888 83.528 282.144 83.72 281.472 84.104C280.8 84.488 280.264 85.048 279.864 85.784C279.464 86.52 279.264 87.384 279.264 88.376C279.264 89.384 279.464 90.264 279.864 91.016C280.264 91.752 280.8 92.32 281.472 92.72C282.144 93.104 282.888 93.296 283.704 93.296C284.52 93.296 285.264 93.104 285.936 92.72C286.624 92.32 287.168 91.752 287.568 91.016C287.968 90.264 288.168 89.392 288.168 88.4ZM300.475 81.608C302.075 81.608 303.371 82.096 304.363 83.072C305.355 84.032 305.851 85.424 305.851 87.248V95H303.691V87.56C303.691 86.248 303.363 85.248 302.707 84.56C302.051 83.856 301.155 83.504 300.019 83.504C298.867 83.504 297.947 83.864 297.259 84.584C296.587 85.304 296.251 86.352 296.251 87.728V95H294.067V81.848H296.251V83.72C296.683 83.048 297.267 82.528 298.003 82.16C298.755 81.792 299.579 81.608 300.475 81.608ZM312.082 83.648V91.4C312.082 92.04 312.218 92.496 312.49 92.768C312.762 93.024 313.234 93.152 313.906 93.152H315.514V95H313.546C312.33 95 311.418 94.72 310.81 94.16C310.202 93.6 309.898 92.68 309.898 91.4V83.648H308.194V81.848H309.898V78.536H312.082V81.848H315.514V83.648H312.082ZM319.289 79.712C318.873 79.712 318.521 79.568 318.233 79.28C317.945 78.992 317.801 78.64 317.801 78.224C317.801 77.808 317.945 77.456 318.233 77.168C318.521 76.88 318.873 76.736 319.289 76.736C319.689 76.736 320.025 76.88 320.297 77.168C320.585 77.456 320.729 77.808 320.729 78.224C320.729 78.64 320.585 78.992 320.297 79.28C320.025 79.568 319.689 79.712 319.289 79.712ZM320.345 81.848V95H318.161V81.848H320.345ZM329.419 83.648H326.659V95H324.475V83.648H322.771V81.848H324.475V80.912C324.475 79.44 324.851 78.368 325.603 77.696C326.371 77.008 327.595 76.664 329.275 76.664V78.488C328.315 78.488 327.635 78.68 327.235 79.064C326.851 79.432 326.659 80.048 326.659 80.912V81.848H329.419V83.648ZM334.149 77.24V95H331.965V77.24H334.149ZM349.199 81.848L341.279 101.192H339.023L341.615 94.856L336.311 81.848H338.735L342.863 92.504L346.943 81.848H349.199Z" fill="black"/>
</svg>
